<svg id="Layer_1" fill="#a48247" data-name="Layer 1" xmlns="http://www.w3.org/2000/svg" viewBox="0 0 48 48"><defs><style>.cls-1{fill-rule:evenodd;}</style></defs><title>Calendar</title><g id="The-Icons"><path id="Combined-Shape" class="cls-1" d="M40,13a2,2,0,0,0-2-2,2,2,0,0,1-4,0H30a2,2,0,0,1-4,0H22a2,2,0,0,1-4,0H14a2,2,0,0,1-4,0,2,2,0,0,0-2,2v4H40ZM8,21V39a2,2,0,0,0,2,2H38a2,2,0,0,0,2-2V21Zm36-8V39a6,6,0,0,1-6,6H10a6,6,0,0,1-6-6V13a6,6,0,0,1,6-6V5a2,2,0,0,1,4,0V7h4V5a2,2,0,0,1,4,0V7h4V5a2,2,0,0,1,4,0V7h4V5a2,2,0,0,1,4,0V7A6,6,0,0,1,44,13Z"/></g></svg>